<svg width="18" height="18" viewBox="0 0 18 18" fill="none" xmlns="http://www.w3.org/2000/svg">
<path fill-rule="evenodd" clip-rule="evenodd" d="M8.80504 0.278817C8.67584 0.312614 8.55839 0.381204 8.46547 0.477123C8.37255 0.573041 8.30772 0.69261 8.27804 0.822817C8.25804 0.910817 8.24104 2.57482 8.24104 4.60882L8.24004 8.23782L4.51004 8.24882C1.12704 8.25882 0.769042 8.26582 0.660042 8.32582C0.536129 8.38782 0.432968 8.48459 0.363173 8.60429C0.293378 8.72399 0.259973 8.86144 0.267042 8.99982C0.267042 9.23682 0.337042 9.40882 0.486042 9.54482C0.711042 9.74882 0.525042 9.73882 4.50904 9.75082L8.23804 9.76182L8.24904 13.4908C8.26104 17.4748 8.25104 17.2888 8.45504 17.5138C8.59104 17.6638 8.76304 17.7328 9.00004 17.7328C9.23704 17.7328 9.40904 17.6638 9.54504 17.5138C9.74904 17.2888 9.73904 17.4748 9.75104 13.4908L9.76204 9.76182L13.491 9.75082C16.873 9.74082 17.231 9.73382 17.34 9.67382C17.464 9.61181 17.5671 9.51504 17.6369 9.39534C17.7067 9.27564 17.7401 9.1382 17.733 8.99982C17.733 8.76282 17.663 8.59082 17.514 8.45482C17.289 8.25082 17.475 8.26082 13.491 8.24882L9.76204 8.23782L9.75104 4.50882C9.73904 0.524817 9.74904 0.710817 9.54504 0.485817C9.37804 0.300817 9.06904 0.214817 8.80504 0.278817Z" fill="#5F5876"/>
</svg>
