<svg width="6" height="12" viewBox="0 0 6 12" fill="none" xmlns="http://www.w3.org/2000/svg">
<path fill-rule="evenodd" clip-rule="evenodd" d="M5.08427 0.96054C4.84277 1.03404 2.86427 2.63904 1.87502 3.56454C1.01177 4.37229 0.448522 5.08554 0.267022 5.60004C0.183779 5.86004 0.183779 6.13954 0.267022 6.39954C0.506272 7.07829 1.29077 7.96329 2.80427 9.26229C3.57752 9.92604 4.81427 10.9048 5.01602 11.0128C5.05352 11.033 5.16152 11.0495 5.25602 11.0495C5.57402 11.0495 5.79977 10.8215 5.79977 10.4998C5.79977 10.2523 5.72627 10.154 5.29877 9.83229C3.87002 8.75754 2.32877 7.39104 1.75877 6.69429C1.51577 6.39729 1.32002 6.08979 1.32002 6.00504C1.32002 5.90454 1.50077 5.61729 1.75952 5.30604C2.37677 4.56429 3.85502 3.25329 5.29877 2.16729C5.72627 1.84554 5.79977 1.74729 5.79977 1.49979C5.80408 1.40737 5.78353 1.31548 5.74027 1.2337C5.697 1.15192 5.6326 1.08323 5.55377 1.03479C5.41248 0.951027 5.24451 0.924463 5.08427 0.96054Z" fill="#A7A4B4"/>
</svg>
