<svg width="12" height="6" viewBox="0 0 12 6" fill="none" xmlns="http://www.w3.org/2000/svg">
<path fill-rule="evenodd" clip-rule="evenodd" d="M1.34402 0.208516C1.22869 0.243137 1.12782 0.31447 1.05675 0.41167C0.985678 0.50887 0.94829 0.62662 0.95027 0.747016C0.95027 0.953266 0.95477 0.961516 1.31252 1.43402C2.63552 3.17852 3.99002 4.66577 4.81502 5.27852C5.33177 5.66252 5.63552 5.79527 6.00002 5.79527C6.36452 5.79527 6.66752 5.66252 7.18502 5.27852C8.00477 4.67027 9.36827 3.17327 10.6875 1.43402C11.046 0.960766 11.0498 0.953266 11.0498 0.744016C11.0498 0.426016 10.8218 0.200266 10.5 0.200266C10.2525 0.200266 10.1543 0.273766 9.83252 0.701266C8.75702 2.13077 7.38977 3.67277 6.68852 4.24652C6.39152 4.48952 6.08852 4.68002 6.00002 4.68002C5.91152 4.68002 5.60852 4.48952 5.31152 4.24652C4.61027 3.67277 3.24302 2.13077 2.16752 0.701266C2.01677 0.501016 1.84877 0.309766 1.79402 0.276016C1.67777 0.204766 1.45952 0.171766 1.34402 0.208516Z" fill="#5F5876"/>
</svg>
