<svg width="6" height="12" viewBox="0 0 6 12" fill="none" xmlns="http://www.w3.org/2000/svg">
<path fill-rule="evenodd" clip-rule="evenodd" d="M0.611155 0.957659C0.491185 0.987813 0.385082 1.05797 0.310361 1.15656C0.235639 1.25514 0.196765 1.37625 0.200156 1.49991C0.200156 1.74741 0.273656 1.84566 0.701156 2.16741C2.13066 3.24291 3.67266 4.61016 4.24641 5.31141C4.48941 5.60841 4.6799 5.91141 4.6799 5.99991C4.6799 6.08841 4.48941 6.39141 4.24641 6.68841C3.67266 7.38966 2.13066 8.75691 0.701156 9.83241C0.273656 10.1542 0.200156 10.2524 0.200156 10.4999C0.200156 10.8217 0.425905 11.0497 0.743905 11.0497C0.838405 11.0497 0.946406 11.0332 0.983906 11.0129C1.18491 10.9057 2.42091 9.92766 3.19566 9.26241C4.69866 7.97316 5.49516 7.07541 5.73291 6.39966C5.81615 6.13966 5.81615 5.86016 5.73291 5.60016C5.49516 4.92441 4.69866 4.02666 3.19566 2.73741C2.44641 2.09391 1.18116 1.09116 0.998905 0.995159C0.915655 0.951659 0.715405 0.932159 0.611155 0.957659Z" fill="#A7A4B4"/>
</svg>
