<svg width="20" height="22" viewBox="0 0 20 22" fill="none" xmlns="http://www.w3.org/2000/svg">
<path fill-rule="evenodd" clip-rule="evenodd" d="M8.92012 0.281305C8.04112 0.333305 7.54512 0.529305 7.06012 1.01831C6.69312 1.38931 6.54912 1.63231 6.01812 2.78031L5.57312 3.74031L3.15712 3.76031C1.42412 3.77431 0.717116 3.79331 0.660116 3.82731C0.520702 3.92457 0.404303 4.0512 0.319116 4.19831C0.249116 4.33331 0.256116 4.67731 0.331116 4.82131C0.422019 4.98597 0.562751 5.1176 0.733116 5.19731C0.795116 5.22131 1.06012 5.2403 1.32312 5.2403C1.58512 5.2403 1.80012 5.25431 1.80012 5.27031C1.80012 5.37331 2.40712 15.3263 2.44012 15.7803C2.55212 17.2793 2.66712 18.0653 2.86412 18.6673C3.25512 19.8663 4.22912 20.8893 5.42012 21.3523C6.05712 21.5993 6.63012 21.6703 8.44912 21.7243C10.2701 21.7783 12.7801 21.7263 13.4731 21.6193C14.5571 21.4523 15.2561 21.1213 15.9891 20.4263C16.8171 19.6413 17.2161 18.7663 17.3981 17.3403C17.4481 16.9483 17.5041 16.3293 17.5591 15.5603C17.5921 15.0963 18.2001 5.3273 18.2001 5.25931C18.2001 5.2483 18.4151 5.2403 18.6771 5.2403C19.1971 5.2403 19.3211 5.21131 19.4941 5.04731C19.572 4.97965 19.6337 4.89539 19.6747 4.80072C19.7158 4.70606 19.735 4.6034 19.7311 4.50031C19.7318 4.35116 19.6881 4.20518 19.6054 4.08103C19.5228 3.95687 19.405 3.86018 19.2671 3.80331C19.1931 3.77431 18.3801 3.76031 16.8461 3.76031H14.5361L14.0331 2.74931C13.8272 2.32642 13.6091 1.90958 13.3791 1.49931C13.0361 0.960306 12.4601 0.530305 11.8821 0.380305C11.4091 0.258305 10.0791 0.214305 8.92012 0.281305ZM11.5801 1.84131C11.8811 1.94731 12.1151 2.24431 12.4951 3.00331C12.6851 3.38331 12.8401 3.70931 12.8401 3.72731C12.8401 3.74531 11.5801 3.76031 10.0401 3.76031C8.11212 3.76031 7.24012 3.74731 7.24012 3.71831C7.24012 3.69531 7.39012 3.36531 7.57412 2.98531C8.00912 2.08431 8.17812 1.89831 8.65112 1.80131C8.93912 1.74231 11.3931 1.77631 11.5801 1.84131ZM16.6911 5.27031C16.7101 5.30731 16.1141 14.9383 16.0231 16.0663C15.8701 17.9483 15.6861 18.5703 15.0951 19.1983C14.5751 19.7503 14.1321 19.9813 13.3001 20.1323C12.8351 20.2173 12.7291 20.2203 10.0001 20.2193C7.55112 20.2193 7.12712 20.2103 6.78012 20.1523C5.92512 20.0093 5.47112 19.7923 4.95912 19.2813C4.34912 18.6723 4.13312 18.0253 3.98412 16.3603C3.89912 15.4113 3.29512 5.39231 3.31512 5.27031C3.32212 5.23131 16.6701 5.23131 16.6911 5.27031ZM7.18012 8.8273C7.02832 8.89612 6.90626 9.01712 6.83612 9.16831C6.76312 9.31031 6.76012 9.45531 6.76012 12.5003C6.76012 15.9193 6.75312 15.7843 6.95512 16.0143C7.21012 16.3053 7.79012 16.3053 8.04512 16.0143C8.24712 15.7843 8.24012 15.9193 8.24012 12.5003C8.24012 9.45531 8.23712 9.31031 8.16412 9.16831C8.09349 9.0142 7.968 8.89192 7.81212 8.8253C7.65012 8.74331 7.33712 8.7443 7.18012 8.8273ZM12.1801 8.8273C12.0283 8.89612 11.9063 9.01712 11.8361 9.16831C11.7631 9.31031 11.7601 9.45531 11.7601 12.5003C11.7601 15.9193 11.7531 15.7843 11.9551 16.0143C12.2101 16.3053 12.7901 16.3053 13.0451 16.0143C13.2471 15.7843 13.2401 15.9193 13.2401 12.5003C13.2401 9.45531 13.2371 9.31031 13.1641 9.16831C13.0935 9.0142 12.968 8.89192 12.8121 8.8253C12.6501 8.74331 12.3371 8.7443 12.1801 8.8273Z" fill="#A7A4B4"/>
</svg>
