<svg width="18" height="18" viewBox="0 0 18 18" fill="none" xmlns="http://www.w3.org/2000/svg">
<path fill-rule="evenodd" clip-rule="evenodd" d="M8.1001 0.0675917C7.3676 0.110925 6.95426 0.274258 6.5501 0.681758C6.24426 0.990925 6.12426 1.19343 5.68176 2.15009L5.31093 2.95009L3.2976 2.96676C1.85343 2.97843 1.26426 2.99426 1.21676 3.02259C1.10059 3.10364 1.00359 3.20917 0.932597 3.33176C0.874263 3.44426 0.880097 3.73092 0.942597 3.85092C1.01835 3.98814 1.13563 4.09784 1.2776 4.16426C1.32926 4.18426 1.5501 4.20009 1.76926 4.20009C1.9876 4.20009 2.16676 4.21176 2.16676 4.22509C2.16676 4.31093 2.6726 12.6051 2.7001 12.9834C2.79343 14.2326 2.88926 14.8876 3.05343 15.3893C3.37926 16.3884 4.19093 17.2409 5.18343 17.6268C5.71426 17.8326 6.19176 17.8918 7.7076 17.9368C9.2251 17.9818 11.3168 17.9384 11.8943 17.8493C12.7976 17.7101 13.3801 17.4343 13.9909 16.8551C14.6809 16.2009 15.0134 15.4718 15.1651 14.2834C15.2068 13.9568 15.2534 13.4409 15.2993 12.8001C15.3268 12.4134 15.8334 4.27259 15.8334 4.21592C15.8334 4.20676 16.0126 4.20009 16.2309 4.20009C16.6643 4.20009 16.7676 4.17592 16.9118 4.03926C16.9767 3.98288 17.0281 3.91266 17.0623 3.83377C17.0965 3.75488 17.1125 3.66934 17.1093 3.58342C17.1099 3.45914 17.0734 3.33749 17.0045 3.23403C16.9357 3.13056 16.8375 3.04999 16.7226 3.00259C16.6609 2.97843 15.9834 2.96676 14.7051 2.96676H12.7801L12.3609 2.12426C12.1893 1.77185 12.0076 1.42448 11.8159 1.08259C11.5301 0.633425 11.0501 0.275092 10.5684 0.150092C10.1743 0.0484251 9.06593 0.0117584 8.1001 0.0675917ZM10.3168 1.36759C10.5676 1.45593 10.7626 1.70342 11.0793 2.33592C11.2376 2.65259 11.3668 2.92426 11.3668 2.93926C11.3668 2.95426 10.3168 2.96676 9.03343 2.96676C7.42676 2.96676 6.7001 2.95592 6.7001 2.93176C6.7001 2.91259 6.8251 2.63759 6.97843 2.32092C7.34093 1.57009 7.48176 1.41509 7.87593 1.33426C8.11593 1.28509 10.1609 1.31343 10.3168 1.36759ZM14.5759 4.22509C14.5918 4.25592 14.0951 12.2818 14.0193 13.2218C13.8918 14.7901 13.7384 15.3084 13.2459 15.8318C12.8126 16.2918 12.4434 16.4843 11.7501 16.6101C11.3626 16.6809 11.2743 16.6834 9.0001 16.6826C6.95926 16.6826 6.60593 16.6751 6.31676 16.6268C5.60426 16.5076 5.22593 16.3268 4.79926 15.9009C4.29093 15.3934 4.11093 14.8543 3.98676 13.4668C3.91593 12.6759 3.4126 4.32676 3.42926 4.22509C3.4351 4.19259 14.5584 4.19259 14.5759 4.22509ZM6.6501 7.18926C6.5236 7.2466 6.42188 7.34743 6.36343 7.47342C6.3026 7.59176 6.3001 7.71259 6.3001 10.2501C6.3001 13.0993 6.29426 12.9868 6.4626 13.1784C6.6751 13.4209 7.15843 13.4209 7.37093 13.1784C7.53926 12.9868 7.53343 13.0993 7.53343 10.2501C7.53343 7.71259 7.53093 7.59176 7.4701 7.47342C7.41124 7.345 7.30667 7.2431 7.17676 7.18759C7.04176 7.11926 6.78093 7.12009 6.6501 7.18926ZM10.8168 7.18926C10.6903 7.2466 10.5885 7.34743 10.5301 7.47342C10.4693 7.59176 10.4668 7.71259 10.4668 10.2501C10.4668 13.0993 10.4609 12.9868 10.6293 13.1784C10.8418 13.4209 11.3251 13.4209 11.5376 13.1784C11.7059 12.9868 11.7001 13.0993 11.7001 10.2501C11.7001 7.71259 11.6976 7.59176 11.6368 7.47342C11.5779 7.345 11.4733 7.2431 11.3434 7.18759C11.2084 7.11926 10.9476 7.12009 10.8168 7.18926Z" fill="#A43437"/>
</svg>
