<svg width="18" height="19" viewBox="0 0 18 19" fill="none" xmlns="http://www.w3.org/2000/svg">
    <path fill-rule="evenodd" clip-rule="evenodd" d="M8.58311 0.554786C6.79306 0.640918 5.06982 1.26107 3.63538 2.33534C2.20094 3.4096 1.12103 4.88878 0.534772 6.58229C0.193939 7.57062 0.0581055 8.40479 0.0581055 9.49979C0.0581055 10.5948 0.193939 11.429 0.534772 12.4173C1.48644 15.1823 3.72561 17.299 6.56394 18.1156C7.3656 18.3465 8.07144 18.4406 8.99977 18.4406C10.4548 18.4406 11.6639 18.1623 12.9498 17.5315C15.6973 16.1831 17.5439 13.5548 17.9014 10.4831C17.9231 10.2998 17.9406 9.85729 17.9406 9.49979C17.9406 8.04479 17.6623 6.83562 17.0314 5.54979C15.9114 3.26729 13.9048 1.59479 11.4356 0.883952C10.5072 0.628833 9.54518 0.517817 8.58311 0.554786ZM10.2998 1.89979C11.5847 2.12818 12.793 2.67161 13.8164 3.48145C14.2376 3.83918 14.6297 4.22986 14.9889 4.64979C15.6811 5.51536 16.1844 6.51628 16.4664 7.58812C16.6498 8.31312 16.6831 8.60895 16.6831 9.49979C16.6831 10.3906 16.6498 10.6865 16.4664 11.4115C16.1868 12.4684 15.6939 13.457 15.0181 14.3165C14.6604 14.7377 14.2697 15.1297 13.8498 15.489C12.9842 16.1812 11.9833 16.6844 10.9114 16.9665C10.1864 17.1498 9.8906 17.1831 8.99977 17.1831C8.10894 17.1831 7.81311 17.1498 7.08811 16.9665C6.01627 16.6844 5.01535 16.1812 4.14977 15.489C3.72984 15.1297 3.33917 14.7377 2.98144 14.3165C2.16785 13.2885 1.62286 12.0742 1.39561 10.7831C1.32727 10.404 1.31811 10.2431 1.31811 9.49979C1.31811 8.75645 1.32727 8.59562 1.39561 8.21645C1.62444 6.91051 2.17969 5.68362 3.00977 4.64979C3.36885 4.22944 3.76123 3.83873 4.1831 3.48145C5.20548 2.67066 6.41437 2.12838 7.69977 1.90395C8.28977 1.80645 8.30227 1.80562 9.1331 1.81645C9.72644 1.82395 9.96977 1.84145 10.2998 1.89979ZM12.1739 5.57062C12.1139 5.58812 11.9489 5.67229 11.8073 5.75729C10.4498 6.57562 8.99394 8.27562 7.7531 10.4931L7.56061 10.8365L7.32144 10.6098C7.0051 10.3128 6.66662 10.0404 6.30894 9.79479C5.85977 9.49145 5.67561 9.44395 5.41477 9.56229C5.16561 9.67562 5.00061 9.97062 5.05144 10.2106C5.10227 10.454 5.16977 10.534 5.51977 10.769C6.18811 11.2173 6.68477 11.6823 7.05394 12.2056C7.31061 12.5698 7.51477 12.6765 7.80561 12.599C8.02311 12.5406 8.14977 12.4256 8.27144 12.1748C8.48311 11.7365 8.98227 10.8431 9.29977 10.3331C9.96144 9.26979 10.5081 8.55895 11.1998 7.86312C11.7231 7.33729 12.0414 7.07562 12.5073 6.78812C12.7923 6.61229 12.8739 6.51895 12.9323 6.30229C13.0123 6.00645 12.8148 5.66479 12.5114 5.57395C12.3564 5.52729 12.3248 5.52729 12.1739 5.57062Z" fill="#174E33"/>
</svg>
