<svg width="18" height="18" viewBox="0 0 18 18" fill="none" xmlns="http://www.w3.org/2000/svg">
<path fill-rule="evenodd" clip-rule="evenodd" d="M5.92494 0.501511C3.76828 0.603178 2.63828 0.964844 1.79494 1.82401C0.93411 2.70068 0.608276 3.75318 0.500776 5.99984C0.45661 6.92734 0.45661 11.0723 0.500776 11.9998C0.608276 14.2465 0.93411 15.299 1.79494 16.1757C2.65328 17.0498 3.73828 17.3915 5.99994 17.499C6.92744 17.5432 11.0724 17.5432 11.9999 17.499C14.2616 17.3915 15.3466 17.0498 16.2049 16.1757C17.0658 15.299 17.3916 14.2465 17.4991 11.9998C17.5433 11.0723 17.5433 6.92734 17.4991 5.99984C17.3916 3.73818 17.0499 2.65318 16.1758 1.79484C15.2991 0.934011 14.2466 0.608178 11.9999 0.500678C11.1983 0.463178 6.73911 0.463178 5.92494 0.501511ZM11.1958 1.72068L11.2999 1.74151V16.2582L11.1958 16.279C11.1383 16.2907 10.1508 16.2998 8.99994 16.2998C7.84994 16.2998 6.86161 16.2907 6.80411 16.279L6.69994 16.2582V1.73818L6.77494 1.72318C6.89494 1.69984 11.0808 1.69734 11.1958 1.72068ZM5.46661 9.00151V16.2373L5.32494 16.219C5.17229 16.2002 5.01951 16.1824 4.86661 16.1657C3.38661 16.0015 2.53494 15.4657 2.13911 14.4498C1.78828 13.5498 1.70161 12.4773 1.70161 9.03318C1.70078 5.53818 1.78744 4.45234 2.13911 3.54984C2.46244 2.72068 3.08661 2.21318 4.08328 1.96984C4.51984 1.87306 4.96255 1.80652 5.40828 1.77068C5.46328 1.76651 5.46661 2.13151 5.46661 9.00151ZM12.9999 1.81734C14.5558 1.96401 15.4416 2.49818 15.8599 3.54151C16.2016 4.39318 16.2991 5.60901 16.2991 8.99984C16.2991 12.209 16.2124 13.434 15.9258 14.2832C15.6541 15.0882 15.0883 15.654 14.2833 15.9257C14.0041 16.0198 13.5083 16.1232 13.1333 16.1657C12.9804 16.1824 12.8276 16.2002 12.6749 16.219L12.5333 16.2373V1.76068L12.6583 1.77901C12.7274 1.78901 12.8808 1.80651 12.9999 1.81734Z" fill="#5F5876"/>
</svg>
