<svg width="16" height="14" viewBox="0 0 16 14" fill="none" xmlns="http://www.w3.org/2000/svg">
<path fill-rule="evenodd" clip-rule="evenodd" d="M1.09996 0.171065C0.881629 0.257732 0.724129 0.500232 0.724129 0.750232C0.723521 0.874521 0.759984 0.996169 0.82886 1.09963C0.897736 1.20309 0.995895 1.28367 1.1108 1.33107C1.24246 1.38107 14.7575 1.38107 14.8891 1.33107C15.004 1.28367 15.1022 1.20309 15.1711 1.09963C15.2399 0.996169 15.2764 0.874521 15.2758 0.750232C15.2764 0.625942 15.2399 0.504294 15.1711 0.400832C15.1022 0.29737 15.004 0.216793 14.8891 0.169398C14.7633 0.121065 1.21996 0.123565 1.09996 0.171065ZM1.09996 4.33773C0.881629 4.4244 0.724129 4.6669 0.724129 4.9169C0.723521 5.04119 0.759984 5.16284 0.82886 5.2663C0.897736 5.36976 0.995895 5.45034 1.1108 5.49773C1.24246 5.54773 14.7575 5.54773 14.8891 5.49773C15.004 5.45034 15.1022 5.36976 15.1711 5.2663C15.2399 5.16284 15.2764 5.04119 15.2758 4.9169C15.2764 4.79261 15.2399 4.67096 15.1711 4.5675C15.1022 4.46404 15.004 4.38346 14.8891 4.33607C14.7633 4.28773 1.21996 4.29023 1.09996 4.33773ZM1.09996 8.5044C0.881629 8.59107 0.724129 8.83356 0.724129 9.08356C0.723521 9.20785 0.759984 9.3295 0.82886 9.43297C0.897736 9.53643 0.995895 9.617 1.1108 9.6644C1.24246 9.7144 14.7575 9.7144 14.8891 9.6644C15.004 9.617 15.1022 9.53643 15.1711 9.43297C15.2399 9.3295 15.2764 9.20785 15.2758 9.08356C15.2764 8.95928 15.2399 8.83763 15.1711 8.73417C15.1022 8.6307 15.004 8.55013 14.8891 8.50273C14.7633 8.4544 1.21996 8.4569 1.09996 8.5044ZM1.09996 12.6711C0.881629 12.7577 0.724129 13.0002 0.724129 13.2502C0.723521 13.3745 0.759984 13.4962 0.82886 13.5996C0.897736 13.7031 0.995895 13.7837 1.1108 13.8311C1.24246 13.8811 14.7575 13.8811 14.8891 13.8311C15.004 13.7837 15.1022 13.7031 15.1711 13.5996C15.2399 13.4962 15.2764 13.3745 15.2758 13.2502C15.2764 13.1259 15.2399 13.0043 15.1711 12.9008C15.1022 12.7974 15.004 12.7168 14.8891 12.6694C14.7633 12.6211 1.21996 12.6236 1.09996 12.6711Z" fill="#5F5876"/>
</svg>
