<svg width="4" height="18" viewBox="0 0 4 18" fill="none" xmlns="http://www.w3.org/2000/svg">
<path fill-rule="evenodd" clip-rule="evenodd" d="M1.71675 0.900937C1.13592 0.979271 0.598417 1.37344 0.330917 1.91677C-0.100749 2.79344 0.182585 3.79677 1.01425 4.33927C1.31258 4.53344 1.58175 4.60677 2.00008 4.60677C2.26175 4.60677 2.40508 4.58927 2.56925 4.53677C3.04657 4.37558 3.44136 4.03317 3.66842 3.58344C4.10092 2.7076 3.81758 1.70344 2.98508 1.16094C2.64758 0.940937 2.15925 0.840937 1.71675 0.900937ZM2.22258 2.16927C2.43008 2.24677 2.63175 2.53427 2.63175 2.7501C2.63175 2.88427 2.53008 3.09677 2.41258 3.20594C2.10008 3.49844 1.61758 3.38927 1.43008 2.98344C1.39156 2.9111 1.37142 2.8304 1.37142 2.74844C1.37142 2.66648 1.39156 2.58578 1.43008 2.51344C1.57258 2.19927 1.91258 2.05177 2.22258 2.16927ZM1.52092 7.18594C1.22175 7.25927 0.941751 7.4251 0.683418 7.68344C0.305084 8.06177 0.134251 8.47094 0.134251 9.0001C0.134251 9.52927 0.305084 9.93844 0.683418 10.3168C1.06175 10.6951 1.47092 10.8659 2.00008 10.8659C2.52925 10.8659 2.93842 10.6951 3.31675 10.3168C3.69508 9.93844 3.86592 9.52927 3.86592 9.0001C3.86592 8.47094 3.69508 8.06177 3.31675 7.68344C3.05258 7.41927 2.77842 7.25927 2.46342 7.1851C2.15231 7.12286 1.83192 7.12315 1.52092 7.18594ZM2.18258 8.40427C2.35925 8.4526 2.55008 8.64844 2.59925 8.8301C2.76592 9.44927 2.01425 9.88927 1.56258 9.4376C1.48765 9.36435 1.43261 9.27321 1.40267 9.17278C1.37274 9.07235 1.36889 8.96595 1.39149 8.86363C1.41409 8.7613 1.46239 8.66642 1.53184 8.58794C1.60129 8.50946 1.6896 8.44998 1.78842 8.4151C1.94675 8.35927 2.01342 8.35677 2.18258 8.40427ZM1.71675 13.4009C1.13592 13.4793 0.598417 13.8734 0.330917 14.4168C-0.100749 15.2934 0.182585 16.2968 1.01425 16.8393C1.31258 17.0334 1.58175 17.1068 2.00008 17.1068C2.26175 17.1068 2.40508 17.0893 2.56925 17.0368C3.04657 16.8756 3.44136 16.5332 3.66842 16.0834C4.10092 15.2076 3.81758 14.2034 2.98508 13.6609C2.64758 13.4409 2.15925 13.3409 1.71675 13.4009ZM2.22258 14.6693C2.43008 14.7468 2.63175 15.0343 2.63175 15.2501C2.63175 15.3843 2.53008 15.5968 2.41258 15.7059C2.10008 15.9984 1.61758 15.8893 1.43008 15.4834C1.39156 15.4111 1.37142 15.3304 1.37142 15.2484C1.37142 15.1665 1.39156 15.0858 1.43008 15.0134C1.57258 14.6993 1.91258 14.5518 2.22258 14.6693Z" fill="#5F5876"/>
</svg>
