<svg width="16" height="16" viewBox="0 0 16 16" fill="none" xmlns="http://www.w3.org/2000/svg">
<path fill-rule="evenodd" clip-rule="evenodd" d="M11.1866 0.853487C10.8718 0.883255 10.5659 0.975017 10.2866 1.12349C10.0513 1.24149 9.91398 1.34082 9.68398 1.55815C9.50331 1.72882 2.79665 8.97549 2.22931 9.61349C1.33465 10.6195 1.10531 11.1228 0.975314 12.3735C0.864647 13.4328 0.821314 14.1375 0.855314 14.3462C0.893314 14.5808 1.01731 14.8055 1.17065 14.9182C1.43998 15.1142 1.69931 15.1448 3.14198 15.1502C4.18131 15.1535 4.44265 15.1348 4.86798 15.0268C5.51465 14.8635 6.00331 14.5495 6.86665 13.7428C7.08665 13.5368 8.76065 11.9295 10.5866 10.1702C12.4126 8.41149 14.0013 6.88282 14.1166 6.77282C14.9073 6.02349 15.218 5.30082 15.144 4.38349C15.1052 3.89247 14.9289 3.42231 14.6353 3.02682C14.4566 2.79015 13.186 1.50149 12.9733 1.34149C12.4866 0.97482 11.806 0.78882 11.1866 0.853487ZM11.828 1.88082C12.186 1.97215 12.2913 2.04749 12.9033 2.65149C13.526 3.26482 13.8333 3.60082 13.94 3.78282C14.072 4.00749 14.138 4.23615 14.1526 4.52082C14.1686 4.81815 14.1426 4.98082 14.0353 5.25015C13.932 5.51149 13.8413 5.62949 13.4446 6.02282L13.0853 6.37882L11.396 4.68949C10.4666 3.76015 9.70665 2.99215 9.70665 2.98149C9.70665 2.97082 9.90198 2.76549 10.14 2.52415C10.602 2.05749 10.7233 1.97282 11.0666 1.88215C11.2606 1.83082 11.63 1.83015 11.828 1.88082ZM10.6866 5.39349C11.5993 6.30615 12.3466 7.06082 12.3466 7.07015C12.3466 7.08949 6.38465 12.8322 5.97331 13.2082C5.28198 13.8408 4.88265 14.0542 4.24065 14.1328C3.98931 14.1635 2.70731 14.1695 2.17998 14.1428L1.83998 14.1255V14.0115C1.83998 13.9488 1.86398 13.6055 1.89331 13.2488C2.05398 11.3082 2.08331 11.2428 3.51198 9.68749C5.08198 7.97749 9.00265 3.73549 9.01331 3.73482C9.02065 3.73415 9.77331 4.48015 10.6866 5.39349ZM9.20331 14.1868C8.94931 14.2475 8.79131 14.5168 8.85265 14.7848C8.89998 14.9915 9.06465 15.1335 9.28798 15.1602C9.36398 15.1688 10.6386 15.1728 12.12 15.1682C14.5666 15.1608 14.8206 15.1562 14.8933 15.1162C14.9759 15.0748 15.0447 15.0103 15.0912 14.9305C15.1378 14.8507 15.16 14.7591 15.1553 14.6668C15.16 14.5746 15.1378 14.4829 15.0912 14.4031C15.0447 14.3233 14.9759 14.2588 14.8933 14.2175C14.8206 14.1775 14.5666 14.1728 12.0533 14.1695C10.5353 14.1668 9.25265 14.1748 9.20331 14.1868Z" fill="#5F5876"/>
</svg>
