<svg width="22" height="19" viewBox="0 0 22 19" fill="none" xmlns="http://www.w3.org/2000/svg">
<path fill-rule="evenodd" clip-rule="evenodd" d="M7.54005 0.304112C4.75005 0.378112 3.71405 0.537112 2.70805 1.04611C1.85105 1.48011 1.18805 2.22411 0.803054 3.18611C0.392054 4.21211 0.273054 5.63111 0.274054 9.50011C0.274054 13.3741 0.392054 14.7891 0.803054 15.8141C1.34205 17.1611 2.38105 18.0291 3.86805 18.3761C4.69305 18.5681 5.56805 18.6411 7.78005 18.7001C10.5241 18.7731 10.7771 18.7621 11.0131 18.5481C11.3051 18.2841 11.3061 17.7111 11.0141 17.4551C10.8131 17.2781 10.7571 17.2711 9.30005 17.2431C5.71905 17.1741 4.69405 17.0951 3.88005 16.8221C2.75005 16.4431 2.14805 15.6461 1.94405 14.2561C1.80505 13.3061 1.78205 12.6421 1.78205 9.50011C1.78205 6.35811 1.80505 5.69411 1.94405 4.74411C2.14805 3.35311 2.74705 2.55711 3.87605 2.17911C4.83505 1.85811 6.42905 1.76511 11.0001 1.76511C14.6581 1.76511 16.3891 1.82911 17.4181 2.00311C18.7551 2.22811 19.5341 2.85811 19.8931 4.00411C20.1191 4.72311 20.1961 5.69511 20.2341 8.29511C20.2651 10.3751 20.2581 10.3121 20.5061 10.5471C20.5708 10.6114 20.6481 10.6616 20.733 10.6948C20.818 10.728 20.9089 10.7434 21.0001 10.7401C21.0912 10.7434 21.1821 10.728 21.2671 10.6948C21.352 10.6616 21.4293 10.6114 21.4941 10.5471C21.7451 10.3091 21.7411 10.3431 21.7291 8.74011C21.7021 4.99311 21.5371 3.70411 20.9511 2.66011C20.2481 1.40811 19.1221 0.726113 17.3521 0.482113C15.9711 0.291113 11.2351 0.205112 7.54005 0.304112ZM5.69905 5.31611C5.54105 5.38511 5.34105 5.61611 5.28005 5.79911C5.19905 6.04611 5.28905 6.34411 5.50605 6.54511C5.65105 6.67811 8.63105 8.43911 9.23405 8.74711C10.5191 9.40411 11.4811 9.40411 12.7661 8.74711C13.3691 8.43911 16.3491 6.67811 16.4941 6.54511C16.5678 6.48259 16.6279 6.40566 16.6709 6.31906C16.7138 6.23246 16.7386 6.138 16.7438 6.04147C16.7489 5.94494 16.7343 5.84838 16.7008 5.7577C16.6674 5.66702 16.6157 5.58413 16.5491 5.51411C16.3141 5.24611 15.9771 5.18611 15.6461 5.35411C15.0693 5.68129 14.4963 6.01498 13.9271 6.35511C12.2341 7.35711 11.9811 7.49311 11.5441 7.64011C11.1932 7.77113 10.8069 7.77113 10.4561 7.64011C10.0191 7.49311 9.76605 7.35711 8.07305 6.35511C7.50384 6.01498 6.93081 5.68129 6.35405 5.35411C6.2537 5.30202 6.14349 5.27171 6.03061 5.26516C5.91774 5.25862 5.80475 5.27598 5.69905 5.31611ZM18.4201 11.7601C18.3708 11.7741 18.3211 11.7865 18.2711 11.7971C18.1241 11.8291 17.8811 12.0481 17.8141 12.2081C17.7487 12.3881 17.7444 12.5845 17.8021 12.7671C17.8661 12.9361 18.0731 13.1321 18.7981 13.7131L19.4561 14.2401L16.0981 14.2601C13.6491 14.2751 12.7181 14.2931 12.6601 14.3271C12.5206 14.4244 12.4042 14.551 12.3191 14.6981C12.2839 14.7948 12.267 14.8972 12.2691 15.0001C12.2691 15.1121 12.2911 15.2481 12.3191 15.3021C12.3821 15.4251 12.5541 15.6121 12.6601 15.6731C12.7181 15.7071 13.6491 15.7251 16.0981 15.7401L19.4561 15.7601L18.7981 16.2871C17.8571 17.0401 17.7601 17.1541 17.7601 17.5001C17.7601 17.7841 17.9151 18.0321 18.1791 18.1691C18.3241 18.2451 18.6681 18.2501 18.8021 18.1791C18.9831 18.0831 20.4521 16.8841 20.8321 16.5211C22.0341 15.3751 22.0341 14.6251 20.8321 13.4791C20.4661 13.1301 18.9811 11.9141 18.8201 11.8321C18.7291 11.7851 18.4801 11.7401 18.4201 11.7601Z" fill="#817B93"/>
</svg>
