<svg width="16" height="14" viewBox="0 0 16 14" fill="none" xmlns="http://www.w3.org/2000/svg">
<path fill-rule="evenodd" clip-rule="evenodd" d="M5.69337 0.869408C3.83337 0.918742 3.1427 1.02474 2.47204 1.36407C1.9007 1.65341 1.4587 2.14941 1.20204 2.79074C0.928036 3.47474 0.848703 4.42074 0.849369 7.00008C0.849369 9.58274 0.928036 10.5261 1.20204 11.2094C1.56137 12.1074 2.25404 12.6861 3.24537 12.9174C3.79537 13.0454 4.3787 13.0941 5.85337 13.1334C7.6827 13.1821 7.85137 13.1747 8.0087 13.0321C8.20337 12.8561 8.20404 12.4741 8.00937 12.3034C7.87537 12.1854 7.83804 12.1807 6.8667 12.1621C4.47937 12.1161 3.79604 12.0634 3.25337 11.8814C2.50004 11.6287 2.0987 11.0974 1.9627 10.1707C1.87004 9.53741 1.8547 9.09474 1.8547 7.00008C1.8547 4.90541 1.87004 4.46274 1.9627 3.82941C2.0987 2.90208 2.49804 2.37141 3.2507 2.11941C3.89004 1.90541 4.9527 1.84341 8.00004 1.84341C10.4387 1.84341 11.5927 1.88607 12.2787 2.00207C13.17 2.15207 13.6894 2.57208 13.9287 3.33608C14.0794 3.81541 14.1307 4.46341 14.156 6.19674C14.1767 7.58341 14.172 7.54141 14.3374 7.69808C14.3805 7.7409 14.4321 7.77442 14.4887 7.79655C14.5453 7.81868 14.6059 7.82896 14.6667 7.82674C14.7275 7.82896 14.7881 7.81868 14.8447 7.79655C14.9014 7.77442 14.9529 7.7409 14.996 7.69808C15.1634 7.53941 15.1607 7.56208 15.1527 6.49341C15.1347 3.99541 15.0247 3.13608 14.634 2.44007C14.1654 1.60541 13.4147 1.15074 12.2347 0.988075C11.314 0.860742 8.1567 0.803408 5.69337 0.869408ZM4.46604 4.21074C4.3607 4.25674 4.22737 4.41074 4.1867 4.53274C4.1327 4.69741 4.1927 4.89608 4.33737 5.03008C4.43404 5.11874 6.4207 6.29274 6.8227 6.49808C7.67937 6.93608 8.3207 6.93608 9.17737 6.49808C9.57937 6.29274 11.566 5.11874 11.6627 5.03008C11.7118 4.98839 11.752 4.93711 11.7806 4.87937C11.8092 4.82164 11.8258 4.75866 11.8292 4.69431C11.8326 4.62996 11.8229 4.56558 11.8006 4.50513C11.7782 4.44468 11.7438 4.38942 11.6994 4.34274C11.5427 4.16408 11.318 4.12408 11.0974 4.23608C10.7129 4.45419 10.3308 4.67665 9.95137 4.90341C8.8227 5.57141 8.65404 5.66208 8.3627 5.76008C8.12881 5.84742 7.87126 5.84742 7.63737 5.76008C7.34604 5.66208 7.17737 5.57141 6.0487 4.90341C5.66923 4.67665 5.28721 4.45419 4.9027 4.23608C4.8358 4.20135 4.76232 4.18114 4.68707 4.17678C4.61183 4.17241 4.5365 4.18398 4.46604 4.21074ZM12.9467 8.50674C12.9139 8.51608 12.8807 8.52431 12.8474 8.53141C12.7494 8.55274 12.5874 8.69874 12.5427 8.80541C12.4991 8.92537 12.4963 9.05636 12.5347 9.17808C12.5774 9.29074 12.7154 9.42141 13.1987 9.80874L13.6374 10.1601L11.3987 10.1734C9.76604 10.1834 9.14537 10.1954 9.1067 10.2181C9.01376 10.2829 8.93616 10.3673 8.87937 10.4654C8.85595 10.5299 8.84465 10.5982 8.84604 10.6667C8.84604 10.7414 8.8607 10.8321 8.87937 10.8681C8.92137 10.9501 9.03604 11.0747 9.1067 11.1154C9.14537 11.1381 9.76604 11.1501 11.3987 11.1601L13.6374 11.1734L13.1987 11.5247C12.5714 12.0267 12.5067 12.1027 12.5067 12.3334C12.5067 12.5227 12.61 12.6881 12.786 12.7794C12.8827 12.8301 13.112 12.8334 13.2014 12.7861C13.322 12.7221 14.3014 11.9227 14.5547 11.6807C15.356 10.9167 15.356 10.4167 14.5547 9.65274C14.3107 9.42008 13.3207 8.60941 13.2134 8.55474C13.1527 8.52341 12.9867 8.49341 12.9467 8.50674Z" fill="#5F5876"/>
</svg>
