<svg width="18" height="18" viewBox="0 0 18 18" fill="none" xmlns="http://www.w3.org/2000/svg">
<path fill-rule="evenodd" clip-rule="evenodd" d="M5.97413 0.0690009C4.0308 0.218168 2.22746 1.28233 1.1183 2.93317C0.809322 3.41963 0.557914 3.94034 0.369129 4.48483C-0.141704 6.0515 -0.0325373 7.79483 0.669129 9.264C0.986629 9.93067 1.3308 10.4248 1.84913 10.9623C2.42996 11.5632 2.9258 11.9273 3.64996 12.2848C4.71664 12.8107 5.90785 13.0317 7.09218 12.9235C8.27652 12.8153 9.40794 12.382 10.3616 11.6715L10.6058 11.489L11.2391 12.1223L11.8725 12.7557L11.8 12.9865C11.7441 13.1623 11.7266 13.299 11.7266 13.5665C11.7266 13.9857 11.8008 14.2557 11.9958 14.5523C12.17 14.8165 14.96 17.5923 15.1758 17.7165C15.4591 17.8782 15.7133 17.9398 16.1 17.9398C16.6591 17.939 17.0658 17.769 17.4383 17.379C17.7991 17.0015 17.94 16.6423 17.94 16.0998C17.94 15.6807 17.8658 15.4107 17.6708 15.114C17.4966 14.8498 14.7066 12.074 14.4908 11.9498C14.2075 11.7882 13.9533 11.7265 13.5666 11.7265C13.2991 11.7265 13.1625 11.744 12.9866 11.7998L12.7558 11.8723L12.1225 11.239L11.4891 10.6057L11.6716 10.3615C12.3817 9.40761 12.8147 8.27622 12.9229 7.09199C13.0311 5.90776 12.8104 4.71663 12.285 3.64983C11.9275 2.92567 11.5633 2.42983 10.9625 1.849C9.8608 0.785667 8.51246 0.185668 6.95913 0.0673342C6.4783 0.0306675 6.47663 0.0306675 5.97413 0.0690009ZM7.5458 1.39817C8.32329 1.56301 9.05379 1.90049 9.6833 2.38567C9.98746 2.6215 10.4491 3.08817 10.6708 3.38317C11.1075 3.964 11.4383 4.70233 11.6058 5.4715C11.6708 5.76733 11.6816 5.914 11.6816 6.49983C11.6816 7.08567 11.6708 7.23233 11.6058 7.52817C11.5218 7.931 11.39 8.32237 11.2133 8.694C10.94 9.28067 10.6933 9.63733 10.235 10.1115C9.49246 10.8815 8.60496 11.3707 7.5283 11.6057C7.23246 11.6707 7.0858 11.6815 6.49996 11.6815C5.91413 11.6815 5.76746 11.6707 5.47163 11.6057C4.39496 11.3707 3.50746 10.8815 2.76496 10.1115C2.30663 9.63733 2.05996 9.28067 1.78663 8.694C1.60992 8.32237 1.47815 7.931 1.39413 7.52817C1.32913 7.23233 1.3183 7.08567 1.3183 6.49983C1.3183 5.914 1.32913 5.76733 1.39413 5.4715C1.52392 4.87921 1.74698 4.3113 2.05496 3.789C2.44746 3.1365 3.14246 2.44067 3.7833 2.05983C4.35586 1.71166 4.98928 1.47525 5.64996 1.36317C6.11496 1.27733 7.06996 1.29483 7.5458 1.39817ZM13.7891 13.0015C13.9141 13.0482 16.5933 15.719 16.6533 15.8573C16.7858 16.1615 16.6266 16.5498 16.3225 16.664C16.1707 16.7134 16.0067 16.7096 15.8575 16.6532C15.7191 16.5932 13.0483 13.914 13.0016 13.789C12.9666 13.6983 12.9539 13.6004 12.9648 13.5037C12.9758 13.4071 13.0099 13.3145 13.0643 13.2338C13.1188 13.1532 13.1919 13.087 13.2775 13.0407C13.363 12.9944 13.4585 12.9695 13.5558 12.9682C13.6348 12.9676 13.7134 12.9788 13.7891 13.0015Z" fill="#5F5876"/>
</svg>
