<svg width="10" height="14" viewBox="0 0 10 14" fill="none" xmlns="http://www.w3.org/2000/svg">
<path fill-rule="evenodd" clip-rule="evenodd" d="M4.71046 0.486785C4.07671 0.668285 3.20371 1.45354 1.89046 3.02479C1.52521 3.46203 0.867462 4.30729 0.770712 4.46404C0.720601 4.55284 0.694898 4.65334 0.696215 4.7553C0.697533 4.85726 0.725824 4.95705 0.778212 5.04453C0.893712 5.21929 1.04221 5.29953 1.24996 5.29953C1.50271 5.29953 1.58971 5.23129 1.97521 4.72504C2.66596 3.81754 3.42571 2.93254 4.02496 2.33779L4.41496 1.95154L4.42996 7.55779C4.44571 13.5675 4.43596 13.2143 4.59121 13.3853C4.69321 13.4978 4.82221 13.5495 4.99996 13.5495C5.17771 13.5495 5.30671 13.4978 5.40871 13.3853C5.56396 13.2143 5.55421 13.5675 5.56996 7.55779L5.58496 1.95154L5.97496 2.33779C6.57421 2.93254 7.33396 3.81754 8.02471 4.72504C8.41171 5.23279 8.49646 5.29953 8.75221 5.29953C9.07546 5.29953 9.29971 5.07303 9.29971 4.74753C9.29971 4.54279 9.28096 4.50979 8.83246 3.93079C7.81846 2.62204 6.78946 1.48729 6.17446 0.999785C5.84371 0.737285 5.49196 0.537785 5.25646 0.478535C5.01796 0.418535 4.94521 0.420035 4.71046 0.486785Z" fill="#2D6465"/>
</svg>
