<svg width="24" height="20" viewBox="0 0 24 20" fill="none" xmlns="http://www.w3.org/2000/svg">
    <path fill-rule="evenodd" clip-rule="evenodd" d="M8.20001 0.822982C6.92301 1.05398 5.75301 1.81198 5.06601 2.85098C4.51101 3.69098 4.27501 4.48098 4.27501 5.49998C4.27501 6.51898 4.51101 7.30898 5.06601 8.14898C5.62201 8.98998 6.57601 9.70698 7.54501 10.013C10.085 10.814 12.77 9.40698 13.537 6.87198C13.68 6.39798 13.727 6.05098 13.726 5.47998C13.723 4.19798 13.271 3.08598 12.388 2.18798C11.6845 1.46627 10.7691 0.987745 9.77501 0.821982C9.25261 0.747808 8.72232 0.748145 8.20001 0.822982ZM9.76001 2.33598C10.601 2.55098 11.241 3.01098 11.756 3.77098C12.248 4.49698 12.381 5.63198 12.079 6.53298C11.8827 7.12412 11.5182 7.64509 11.03 8.03198C10.402 8.52898 9.79801 8.73898 9.00001 8.73898C8.20201 8.73898 7.60401 8.53298 6.99501 8.04898C6.18101 7.40198 5.76001 6.53398 5.76001 5.49998C5.76001 4.11198 6.58901 2.92698 7.90401 2.43498C8.42501 2.23998 9.22101 2.19798 9.76001 2.33598ZM15.72 2.28698C15.259 2.32998 15.036 2.42698 14.89 2.64698C14.8299 2.73397 14.7892 2.83291 14.7708 2.93705C14.7524 3.04119 14.7566 3.14808 14.7833 3.25042C14.81 3.35276 14.8584 3.44813 14.9253 3.53003C14.9923 3.61193 15.0761 3.67843 15.171 3.72498C15.308 3.79498 15.38 3.79998 15.951 3.77798C16.509 3.75598 16.616 3.76298 16.894 3.83598C17.365 3.95998 17.701 4.14298 18.028 4.45298C18.559 4.95698 18.732 5.33798 18.732 5.99998C18.732 6.66598 18.554 7.05298 18.02 7.55198C17.688 7.86198 17.357 8.04198 16.894 8.16398C16.616 8.23698 16.509 8.24398 15.95 8.22198C15.289 8.19598 15.192 8.21398 14.986 8.39498C14.738 8.61198 14.694 9.05598 14.89 9.35298C15.041 9.57998 15.255 9.66798 15.77 9.71398C16.814 9.80898 17.807 9.55898 18.62 8.99798C18.994 8.73898 19.531 8.17798 19.731 7.83698C20.297 6.87098 20.393 5.74698 19.997 4.71998C19.822 4.26498 19.614 3.94198 19.251 3.55798C18.531 2.79898 17.665 2.38298 16.595 2.28298C16.4371 2.26579 16.2787 2.25345 16.12 2.24598C15.9868 2.26096 15.8535 2.27463 15.72 2.28698ZM8.32001 12.282C7.33001 12.342 6.30101 12.551 5.44001 12.866C4.99101 13.031 3.80501 13.6 3.06901 14.005C1.46101 14.889 0.762012 15.682 0.760012 16.626C0.759012 17.315 1.13301 17.874 2.06301 18.572C2.96501 19.249 3.91801 19.63 4.93701 19.72C5.51801 19.772 12.482 19.772 13.063 19.72C14.082 19.63 15.035 19.249 15.937 18.572C16.867 17.874 17.241 17.315 17.24 16.626C17.238 15.682 16.539 14.889 14.931 14.005C14.195 13.6 13.009 13.031 12.56 12.866C11.9389 12.6487 11.2997 12.4867 10.65 12.382C10.261 12.324 9.09801 12.235 8.90001 12.247L8.32001 12.282ZM17.42 12.261C17.3706 12.274 17.3209 12.2861 17.271 12.297C17.124 12.329 16.881 12.548 16.814 12.708C16.7599 12.8386 16.7442 12.982 16.7688 13.1213C16.7934 13.2605 16.8574 13.3898 16.953 13.494C17.12 13.671 17.247 13.717 17.684 13.762C19.393 13.938 21.733 15.122 21.733 15.813C21.733 15.91 21.682 15.983 21.47 16.184C21.2 16.44 20.75 16.762 20.452 16.914C20.037 17.125 19.686 17.206 19.036 17.237C18.332 17.272 18.182 17.323 17.999 17.589C17.918 17.708 17.9 17.782 17.9 18C17.9 18.316 18.002 18.5 18.259 18.648C18.409 18.734 18.46 18.74 19.02 18.733C19.914 18.723 20.388 18.608 21.169 18.212C22.031 17.774 22.805 17.089 23.075 16.524C23.212 16.237 23.22 16.197 23.22 15.82C23.22 15.351 23.156 15.131 22.913 14.754C22.418 13.987 21.256 13.241 19.75 12.72C19.213 12.535 18.608 12.378 18.22 12.324C17.871 12.276 17.473 12.244 17.42 12.261ZM9.99201 13.802C10.84 13.8994 11.6705 14.1135 12.46 14.438C12.925 14.632 14.235 15.32 14.752 15.643C15.235 15.944 15.604 16.264 15.698 16.462C15.792 16.659 15.736 16.782 15.424 17.065C14.9028 17.5245 14.2967 17.8778 13.64 18.105L13.3 18.22H4.70001L4.36001 18.105C3.70328 17.8778 3.09726 17.5245 2.57601 17.065C2.26401 16.782 2.20801 16.659 2.30201 16.462C2.39601 16.264 2.76501 15.944 3.24801 15.643C3.76601 15.32 5.07501 14.632 5.54001 14.438C6.3152 14.1209 7.12892 13.9077 7.96001 13.804C8.40001 13.755 9.54401 13.754 9.99201 13.802Z" fill="#817B93"/>
</svg>
