<svg width="16" height="16" viewBox="0 0 16 16" fill="none" xmlns="http://www.w3.org/2000/svg">
<path fill-rule="evenodd" clip-rule="evenodd" d="M7.70677 0.854146C7.0833 0.90578 6.4852 1.12421 5.9752 1.48654C5.4652 1.84887 5.06207 2.34174 4.8081 2.91348C4.44149 3.73723 4.40751 4.67082 4.71328 5.51904C5.01905 6.36727 5.64088 7.06445 6.44877 7.46481C6.92544 7.70415 7.42677 7.81881 8.0001 7.81881C8.5901 7.81881 9.08677 7.70215 9.58277 7.44681C10.158 7.15526 10.641 6.70994 10.9783 6.16033C11.3156 5.61071 11.4939 4.97834 11.4934 4.33348C11.4934 3.01281 10.7641 1.82815 9.57677 1.21681C8.99854 0.926588 8.35158 0.801117 7.70677 0.854146ZM8.66677 1.92815C9.12477 2.06548 9.46077 2.26481 9.7821 2.58948C10.0634 2.87415 10.2601 3.20281 10.3834 3.59481C10.5443 4.11057 10.5328 4.66471 10.3505 5.17331C10.1683 5.68191 9.82527 6.11728 9.37344 6.41348C9.14369 6.56774 8.88973 6.68244 8.6221 6.75281C8.44544 6.80415 8.3501 6.81348 8.0001 6.81348C7.54944 6.81348 7.36877 6.77815 6.9841 6.61415C6.42077 6.37415 5.9241 5.85815 5.6801 5.25815C5.44614 4.6639 5.44614 4.00306 5.6801 3.40881C5.99944 2.62415 6.6621 2.07148 7.51144 1.88215C7.7981 1.81815 8.37544 1.84081 8.66677 1.92815ZM12.1068 8.18815C11.4281 8.27148 10.8461 8.79948 10.7068 9.45681C10.6821 9.57148 10.6674 9.80015 10.6661 10.0668L10.6648 10.4935L10.4461 10.5995C10.0101 10.8095 9.6661 11.2575 9.55477 11.7601C9.49144 12.0461 9.4901 13.5481 9.55344 13.8308C9.67744 14.3855 10.1174 14.8908 10.6314 15.0688C10.8801 15.1548 11.4121 15.1808 12.6268 15.1661C13.6288 15.1541 13.7374 15.1481 13.9294 15.0968C14.2208 15.0188 14.4048 14.9068 14.6534 14.6555C14.8846 14.4319 15.0446 14.145 15.1134 13.8308C15.1768 13.5481 15.1754 12.0461 15.1121 11.7601C15.0008 11.2575 14.6568 10.8095 14.2208 10.5995L14.0021 10.4935L14.0008 10.0668C13.9988 9.56148 13.9621 9.35548 13.8214 9.07015C13.5221 8.46348 12.8174 8.10148 12.1068 8.18815ZM7.02677 8.84481C6.0227 8.88828 5.03655 9.12577 4.12277 9.54415C3.84077 9.67615 2.90344 10.2048 2.45144 10.4868C1.2541 11.2335 0.747438 11.9515 0.857438 12.7461C0.910771 13.1335 1.07477 13.4255 1.4521 13.8008C2.1441 14.4908 2.8881 14.9181 3.71477 15.0995C3.9841 15.1588 4.0081 15.1588 6.2001 15.1595C7.41744 15.1601 8.4461 15.1508 8.4861 15.1395C8.58744 15.1115 8.74744 14.9648 8.79077 14.8615C8.82686 14.7744 8.83732 14.6788 8.8209 14.586C8.80448 14.4931 8.76188 14.4069 8.6981 14.3375C8.53344 14.1635 8.6921 14.1748 6.21344 14.1595C3.99677 14.1455 3.95677 14.1441 3.7581 14.0868C3.19344 13.9241 2.6861 13.6128 2.18277 13.1208C1.83944 12.7855 1.7721 12.5881 1.90277 12.3068C2.0741 11.9401 2.5481 11.5695 3.6801 10.9181C4.5581 10.4135 5.02544 10.2101 5.69877 10.0415C6.3201 9.88548 6.59744 9.85348 7.33344 9.85348C7.99944 9.85348 8.1941 9.87148 8.70277 9.97815C9.00944 10.0421 9.13477 10.0328 9.2841 9.93415C9.55344 9.75615 9.5601 9.33481 9.29744 9.13481C9.20077 9.06081 8.92877 8.99148 8.4601 8.92081C8.1961 8.88148 7.40944 8.82215 7.2801 8.83215C7.24344 8.83481 7.12944 8.84081 7.02677 8.84481ZM12.6268 9.23615C12.9228 9.37415 13.0194 9.59281 13.0074 10.0968L13.0001 10.4135H11.6668L11.6594 10.0968C11.6501 9.72215 11.6914 9.54281 11.8208 9.39615C11.9421 9.25748 12.1354 9.17415 12.3334 9.17415C12.4448 9.17415 12.5341 9.19281 12.6268 9.23615ZM13.7761 11.4855C13.9034 11.5535 14.0421 11.7028 14.1034 11.8381C14.1701 11.9855 14.1828 13.4548 14.1194 13.6741C14.0634 13.8648 13.8588 14.0848 13.6934 14.1301C13.5461 14.1708 11.1208 14.1708 10.9734 14.1301C10.8128 14.0861 10.6041 13.8648 10.5494 13.6821C10.4894 13.4788 10.4868 12.1041 10.5461 11.9041C10.6141 11.6741 10.8154 11.4848 11.0401 11.4375C11.0914 11.4268 11.7034 11.4201 12.4001 11.4228C13.6488 11.4268 13.6681 11.4275 13.7761 11.4855Z" fill="#5F5876"/>
</svg>
